<svg width="268" height="24" viewBox="0 0 268 24" fill="none" xmlns="http://www.w3.org/2000/svg">
<path d="M4.032 0.599998H8.8L12.448 23H8.928L8.288 18.552V18.616H4.288L3.648 23H0.384L4.032 0.599998ZM7.872 15.576L6.304 4.504H6.24L4.704 15.576H7.872ZM14.1558 0.599998H18.5718L21.9958 14.008H22.0598V0.599998H25.1958V23H21.5798L17.3558 6.648H17.2918V23H14.1558V0.599998ZM30.564 3.8H26.884V0.599998H37.764V3.8H34.084V23H30.564V3.8ZM40.7195 0.599998H45.4875L49.1355 23H45.6155L44.9755 18.552V18.616H40.9755L40.3355 23H37.0715L40.7195 0.599998ZM44.5595 15.576L42.9915 4.504H42.9275L41.3915 15.576H44.5595ZM50.8433 0.599998H56.0593C57.8726 0.599998 59.1953 1.02667 60.0273 1.88C60.8593 2.712 61.2753 4.00267 61.2753 5.752V7.128C61.2753 9.45333 60.5073 10.9253 58.9713 11.544V11.608C59.8246 11.864 60.4219 12.3867 60.7633 13.176C61.1259 13.9653 61.3073 15.0213 61.3073 16.344V20.28C61.3073 20.92 61.3286 21.4427 61.3713 21.848C61.4139 22.232 61.5206 22.616 61.6913 23H58.1073C57.9793 22.6373 57.8939 22.296 57.8513 21.976C57.8086 21.656 57.7873 21.08 57.7873 20.248V16.152C57.7873 15.128 57.6166 14.4133 57.2753 14.008C56.9553 13.6027 56.3899 13.4 55.5793 13.4H54.3633V23H50.8433V0.599998ZM55.6433 10.2C56.3473 10.2 56.8699 10.0187 57.2113 9.656C57.5739 9.29333 57.7552 8.68533 57.7552 7.832V6.104C57.7552 5.29333 57.6059 4.70667 57.3073 4.344C57.0299 3.98133 56.5819 3.8 55.9633 3.8H54.3633V10.2H55.6433ZM68.7095 23.32C67.0242 23.32 65.7335 22.84 64.8375 21.88C63.9628 20.92 63.5255 19.5653 63.5255 17.816V5.784C63.5255 4.03467 63.9628 2.68 64.8375 1.72C65.7335 0.759999 67.0242 0.279999 68.7095 0.279999C70.3948 0.279999 71.6748 0.759999 72.5495 1.72C73.4455 2.68 73.8935 4.03467 73.8935 5.784V8.152H70.5655V5.56C70.5655 4.17333 69.9788 3.48 68.8055 3.48C67.6322 3.48 67.0455 4.17333 67.0455 5.56V18.072C67.0455 19.4373 67.6322 20.12 68.8055 20.12C69.9788 20.12 70.5655 19.4373 70.5655 18.072V14.648H73.8935V17.816C73.8935 19.5653 73.4455 20.92 72.5495 21.88C71.6748 22.84 70.3948 23.32 68.7095 23.32ZM78.7515 3.8H75.0715V0.599998H85.9515V3.8H82.2715V23H78.7515V3.8ZM87.6558 0.599998H91.1758V23H87.6558V0.599998ZM98.772 23.32C97.0867 23.32 95.796 22.84 94.9 21.88C94.0253 20.92 93.588 19.5653 93.588 17.816V5.784C93.588 4.03467 94.0253 2.68 94.9 1.72C95.796 0.759999 97.0867 0.279999 98.772 0.279999C100.457 0.279999 101.737 0.759999 102.612 1.72C103.508 2.68 103.956 4.03467 103.956 5.784V8.152H100.628V5.56C100.628 4.17333 100.041 3.48 98.868 3.48C97.6947 3.48 97.108 4.17333 97.108 5.56V18.072C97.108 19.4373 97.6947 20.12 98.868 20.12C100.041 20.12 100.628 19.4373 100.628 18.072V14.648H103.956V17.816C103.956 19.5653 103.508 20.92 102.612 21.88C101.737 22.84 100.457 23.32 98.772 23.32ZM111.187 0.599998H114.707V19.8H120.499V23H111.187V0.599998ZM127.307 23.32C125.6 23.32 124.299 22.84 123.403 21.88C122.507 20.8987 122.059 19.5013 122.059 17.688V0.599998H125.579V17.944C125.579 18.712 125.728 19.2667 126.027 19.608C126.347 19.9493 126.795 20.12 127.371 20.12C127.947 20.12 128.384 19.9493 128.683 19.608C129.003 19.2667 129.163 18.712 129.163 17.944V0.599998H132.555V17.688C132.555 19.5013 132.107 20.8987 131.211 21.88C130.315 22.84 129.014 23.32 127.307 23.32ZM138.135 11.544L134.263 0.599998H137.975L140.343 7.832H140.407L142.839 0.599998H146.167L142.295 11.544L146.359 23H142.647L140.087 15.192H140.023L137.399 23H134.071L138.135 11.544ZM153.12 23.32C151.413 23.32 150.112 22.84 149.216 21.88C148.32 20.8987 147.872 19.5013 147.872 17.688V0.599998H151.391V17.944C151.391 18.712 151.541 19.2667 151.84 19.608C152.16 19.9493 152.608 20.12 153.184 20.12C153.76 20.12 154.197 19.9493 154.496 19.608C154.816 19.2667 154.976 18.712 154.976 17.944V0.599998H158.368V17.688C158.368 19.5013 157.92 20.8987 157.024 21.88C156.128 22.84 154.826 23.32 153.12 23.32ZM160.875 0.599998H166.091C167.904 0.599998 169.227 1.02667 170.059 1.88C170.891 2.712 171.307 4.00267 171.307 5.752V7.128C171.307 9.45333 170.539 10.9253 169.003 11.544V11.608C169.856 11.864 170.453 12.3867 170.795 13.176C171.157 13.9653 171.339 15.0213 171.339 16.344V20.28C171.339 20.92 171.36 21.4427 171.403 21.848C171.445 22.232 171.552 22.616 171.723 23H168.139C168.011 22.6373 167.925 22.296 167.883 21.976C167.84 21.656 167.819 21.08 167.819 20.248V16.152C167.819 15.128 167.648 14.4133 167.307 14.008C166.987 13.6027 166.421 13.4 165.611 13.4H164.395V23H160.875V0.599998ZM165.675 10.2C166.379 10.2 166.901 10.0187 167.243 9.656C167.605 9.29333 167.786 8.68533 167.786 7.832V6.104C167.786 5.29333 167.637 4.70667 167.339 4.344C167.061 3.98133 166.613 3.8 165.995 3.8H164.395V10.2H165.675ZM176.513 13.464L172.257 0.599998H176.001L178.401 8.824H178.465L180.865 0.599998H184.289L180.033 13.464V23H176.513V13.464ZM188.752 3.8H185.072V0.599998H195.952V3.8H192.272V23H188.752V3.8ZM197.656 0.599998H202.872C204.685 0.599998 206.008 1.02667 206.84 1.88C207.672 2.712 208.088 4.00267 208.088 5.752V7.128C208.088 9.45333 207.32 10.9253 205.784 11.544V11.608C206.637 11.864 207.234 12.3867 207.576 13.176C207.938 13.9653 208.12 15.0213 208.12 16.344V20.28C208.12 20.92 208.141 21.4427 208.184 21.848C208.226 22.232 208.333 22.616 208.504 23H204.92C204.792 22.6373 204.706 22.296 204.664 21.976C204.621 21.656 204.6 21.08 204.6 20.248V16.152C204.6 15.128 204.429 14.4133 204.088 14.008C203.768 13.6027 203.202 13.4 202.392 13.4H201.176V23H197.656V0.599998ZM202.456 10.2C203.16 10.2 203.682 10.0187 204.024 9.656C204.386 9.29333 204.568 8.68533 204.568 7.832V6.104C204.568 5.29333 204.418 4.70667 204.12 4.344C203.842 3.98133 203.394 3.8 202.776 3.8H201.176V10.2H202.456ZM213.282 0.599998H218.05L221.698 23H218.178L217.538 18.552V18.616H213.538L212.898 23H209.634L213.282 0.599998ZM217.122 15.576L215.554 4.504H215.49L213.954 15.576H217.122ZM221.572 0.599998H225.124L227.428 17.976H227.492L229.796 0.599998H233.028L229.635 23H224.964L221.572 0.599998ZM234.718 0.599998H244.318V3.8H238.238V9.72H243.07V12.92H238.238V19.8H244.318V23H234.718V0.599998ZM246.343 0.599998H249.863V19.8H255.655V23H246.343V0.599998ZM261.919 23.32C260.213 23.32 258.922 22.84 258.047 21.88C257.173 20.8987 256.735 19.5013 256.735 17.688V16.408H260.063V17.944C260.063 19.3947 260.671 20.12 261.887 20.12C262.485 20.12 262.933 19.9493 263.231 19.608C263.551 19.2453 263.711 18.6693 263.711 17.88C263.711 16.9413 263.498 16.12 263.071 15.416C262.645 14.6907 261.855 13.8267 260.703 12.824C259.253 11.544 258.239 10.392 257.663 9.368C257.087 8.32267 256.799 7.14933 256.799 5.848C256.799 4.07733 257.247 2.712 258.143 1.752C259.039 0.770665 260.341 0.279999 262.047 0.279999C263.733 0.279999 265.002 0.770665 265.855 1.752C266.73 2.712 267.167 4.09867 267.167 5.912V6.84H263.839V5.688C263.839 4.92 263.69 4.36533 263.391 4.024C263.093 3.66133 262.655 3.48 262.079 3.48C260.906 3.48 260.319 4.19467 260.319 5.624C260.319 6.43467 260.533 7.192 260.959 7.896C261.407 8.6 262.207 9.45333 263.359 10.456C264.831 11.736 265.845 12.8987 266.399 13.944C266.954 14.9893 267.231 16.216 267.231 17.624C267.231 19.4587 266.773 20.8667 265.855 21.848C264.959 22.8293 263.647 23.32 261.919 23.32Z" fill="white"/>
</svg>
