<svg width="204" height="19" viewBox="0 0 204 19" fill="none" xmlns="http://www.w3.org/2000/svg">
<path d="M3.024 1.2H6.6L9.336 18H6.696L6.216 14.664V14.712H3.216L2.736 18H0.288L3.024 1.2ZM5.904 12.432L4.728 4.128H4.68L3.528 12.432H5.904ZM10.3241 1.2H13.6361L16.2041 11.256H16.2521V1.2H18.6041V18H15.8921L12.7241 5.736H12.6761V18H10.3241V1.2ZM22.3376 3.6H19.5776V1.2H27.7376V3.6H24.9776V18H22.3376V3.6ZM29.6616 1.2H33.2376L35.9736 18H33.3336L32.8536 14.664V14.712H29.8536L29.3736 18H26.9256L29.6616 1.2ZM32.5416 12.432L31.3656 4.128H31.3176L30.1656 12.432H32.5416ZM36.9617 1.2H40.8737C42.2337 1.2 43.2257 1.52 43.8497 2.16C44.4737 2.784 44.7857 3.752 44.7857 5.064V6.096C44.7857 7.84 44.2097 8.944 43.0577 9.408V9.456C43.6977 9.648 44.1457 10.04 44.4017 10.632C44.6737 11.224 44.8097 12.016 44.8097 13.008V15.96C44.8097 16.44 44.8257 16.832 44.8577 17.136C44.8897 17.424 44.9697 17.712 45.0977 18H42.4097C42.3137 17.728 42.2497 17.472 42.2177 17.232C42.1857 16.992 42.1697 16.56 42.1697 15.936V12.864C42.1697 12.096 42.0417 11.56 41.7857 11.256C41.5457 10.952 41.1217 10.8 40.5137 10.8H39.6017V18H36.9617V1.2ZM40.5617 8.4C41.0897 8.4 41.4817 8.264 41.7377 7.992C42.0097 7.72 42.1457 7.264 42.1457 6.624V5.328C42.1457 4.72 42.0337 4.28 41.8097 4.008C41.6017 3.736 41.2657 3.6 40.8017 3.6H39.6017V8.4H40.5617ZM50.0687 18.24C48.8047 18.24 47.8367 17.88 47.1647 17.16C46.5087 16.44 46.1807 15.424 46.1807 14.112V5.088C46.1807 3.776 46.5087 2.76 47.1647 2.04C47.8367 1.32 48.8047 0.959999 50.0687 0.959999C51.3327 0.959999 52.2927 1.32 52.9487 2.04C53.6207 2.76 53.9567 3.776 53.9567 5.088V6.864H51.4607V4.92C51.4607 3.88 51.0207 3.36 50.1407 3.36C49.2607 3.36 48.8207 3.88 48.8207 4.92V14.304C48.8207 15.328 49.2607 15.84 50.1407 15.84C51.0207 15.84 51.4607 15.328 51.4607 14.304V11.736H53.9567V14.112C53.9567 15.424 53.6207 16.44 52.9487 17.16C52.2927 17.88 51.3327 18.24 50.0687 18.24ZM57.3075 3.6H54.5475V1.2H62.7075V3.6H59.9475V18H57.3075V3.6ZM63.693 1.2H66.333V18H63.693V1.2ZM71.7375 18.24C70.4735 18.24 69.5055 17.88 68.8335 17.16C68.1775 16.44 67.8495 15.424 67.8495 14.112V5.088C67.8495 3.776 68.1775 2.76 68.8335 2.04C69.5055 1.32 70.4735 0.959999 71.7375 0.959999C73.0015 0.959999 73.9615 1.32 74.6175 2.04C75.2895 2.76 75.6255 3.776 75.6255 5.088V6.864H73.1295V4.92C73.1295 3.88 72.6895 3.36 71.8095 3.36C70.9295 3.36 70.4895 3.88 70.4895 4.92V14.304C70.4895 15.328 70.9295 15.84 71.8095 15.84C72.6895 15.84 73.1295 15.328 73.1295 14.304V11.736H75.6255V14.112C75.6255 15.424 75.2895 16.44 74.6175 17.16C73.9615 17.88 73.0015 18.24 71.7375 18.24ZM78.9524 1.2H82.5284L85.2644 18H82.6244L82.1444 14.664V14.712H79.1444L78.6644 18H76.2164L78.9524 1.2ZM81.8324 12.432L80.6564 4.128H80.6084L79.4564 12.432H81.8324ZM89.8035 1.2H92.4435V15.6H96.7875V18H89.8035V1.2ZM101.601 18.24C100.321 18.24 99.3449 17.88 98.6729 17.16C98.0009 16.424 97.6649 15.376 97.6649 14.016V1.2H100.305V14.208C100.305 14.784 100.417 15.2 100.641 15.456C100.881 15.712 101.217 15.84 101.649 15.84C102.081 15.84 102.409 15.712 102.633 15.456C102.873 15.2 102.993 14.784 102.993 14.208V1.2H105.537V14.016C105.537 15.376 105.201 16.424 104.529 17.16C103.857 17.88 102.881 18.24 101.601 18.24ZM109.429 9.408L106.525 1.2H109.309L111.085 6.624H111.133L112.957 1.2H115.453L112.549 9.408L115.597 18H112.813L110.893 12.144H110.845L108.877 18H106.381L109.429 9.408ZM120.375 18.24C119.095 18.24 118.119 17.88 117.447 17.16C116.775 16.424 116.439 15.376 116.439 14.016V1.2H119.079V14.208C119.079 14.784 119.191 15.2 119.415 15.456C119.655 15.712 119.991 15.84 120.423 15.84C120.855 15.84 121.183 15.712 121.407 15.456C121.647 15.2 121.767 14.784 121.767 14.208V1.2H124.311V14.016C124.311 15.376 123.975 16.424 123.303 17.16C122.631 17.88 121.655 18.24 120.375 18.24ZM125.898 1.2H129.81C131.17 1.2 132.162 1.52 132.786 2.16C133.41 2.784 133.722 3.752 133.722 5.064V6.096C133.722 7.84 133.146 8.944 131.994 9.408V9.456C132.634 9.648 133.082 10.04 133.338 10.632C133.61 11.224 133.746 12.016 133.746 13.008V15.96C133.746 16.44 133.762 16.832 133.794 17.136C133.826 17.424 133.906 17.712 134.034 18H131.346C131.25 17.728 131.186 17.472 131.154 17.232C131.122 16.992 131.106 16.56 131.106 15.936V12.864C131.106 12.096 130.978 11.56 130.722 11.256C130.482 10.952 130.058 10.8 129.45 10.8H128.538V18H125.898V1.2ZM129.498 8.4C130.026 8.4 130.418 8.264 130.674 7.992C130.946 7.72 131.082 7.264 131.082 6.624V5.328C131.082 4.72 130.97 4.28 130.746 4.008C130.538 3.736 130.202 3.6 129.738 3.6H128.538V8.4H129.498ZM137.334 10.848L134.142 1.2H136.95L138.75 7.368H138.798L140.598 1.2H143.166L139.974 10.848V18H137.334V10.848ZM146.221 3.6H143.461V1.2H151.621V3.6H148.861V18H146.221V3.6ZM152.606 1.2H156.518C157.878 1.2 158.87 1.52 159.494 2.16C160.118 2.784 160.43 3.752 160.43 5.064V6.096C160.43 7.84 159.854 8.944 158.702 9.408V9.456C159.342 9.648 159.79 10.04 160.046 10.632C160.318 11.224 160.454 12.016 160.454 13.008V15.96C160.454 16.44 160.47 16.832 160.502 17.136C160.534 17.424 160.614 17.712 160.742 18H158.054C157.958 17.728 157.894 17.472 157.862 17.232C157.83 16.992 157.814 16.56 157.814 15.936V12.864C157.814 12.096 157.686 11.56 157.43 11.256C157.19 10.952 156.766 10.8 156.158 10.8H155.246V18H152.606V1.2ZM156.206 8.4C156.734 8.4 157.126 8.264 157.382 7.992C157.654 7.72 157.79 7.264 157.79 6.624V5.328C157.79 4.72 157.678 4.28 157.454 4.008C157.246 3.736 156.91 3.6 156.446 3.6H155.246V8.4H156.206ZM164.033 1.2H167.609L170.345 18H167.705L167.225 14.664V14.712H164.225L163.745 18H161.297L164.033 1.2ZM166.913 12.432L165.737 4.128H165.689L164.537 12.432H166.913ZM169.958 1.2H172.622L174.35 14.232H174.398L176.126 1.2H178.55L176.006 18H172.502L169.958 1.2ZM179.525 1.2H186.725V3.6H182.165V8.04H185.789V10.44H182.165V15.6H186.725V18H179.525V1.2ZM187.951 1.2H190.591V15.6H194.935V18H187.951V1.2ZM199.341 18.24C198.061 18.24 197.093 17.88 196.437 17.16C195.781 16.424 195.453 15.376 195.453 14.016V13.056H197.949V14.208C197.949 15.296 198.405 15.84 199.317 15.84C199.765 15.84 200.101 15.712 200.325 15.456C200.565 15.184 200.685 14.752 200.685 14.16C200.685 13.456 200.525 12.84 200.205 12.312C199.885 11.768 199.293 11.12 198.429 10.368C197.341 9.408 196.581 8.544 196.149 7.776C195.717 6.992 195.501 6.112 195.501 5.136C195.501 3.808 195.837 2.784 196.509 2.064C197.181 1.328 198.157 0.959999 199.437 0.959999C200.701 0.959999 201.653 1.328 202.293 2.064C202.949 2.784 203.277 3.824 203.277 5.184V5.88H200.781V5.016C200.781 4.44 200.669 4.024 200.445 3.768C200.221 3.496 199.893 3.36 199.461 3.36C198.581 3.36 198.141 3.896 198.141 4.968C198.141 5.576 198.301 6.144 198.621 6.672C198.957 7.2 199.557 7.84 200.421 8.592C201.525 9.552 202.285 10.424 202.701 11.208C203.117 11.992 203.325 12.912 203.325 13.968C203.325 15.344 202.981 16.4 202.293 17.136C201.621 17.872 200.637 18.24 199.341 18.24Z" fill="#89ABE3"/>
</svg>
