<svg width="19" height="18" viewBox="0 0 19 18" fill="none" xmlns="http://www.w3.org/2000/svg">
<path d="M2.91453 9.39798L7.97703 14.4605C8.08258 14.566 8.22573 14.6253 8.375 14.6253C8.52427 14.6253 8.66742 14.566 8.77297 14.4605C8.87852 14.3549 8.93781 14.2118 8.93781 14.0625C8.93781 13.9132 8.87852 13.7701 8.77297 13.6645L4.67023 9.56251H15.6875C15.8367 9.56251 15.9798 9.50324 16.0852 9.39776C16.1907 9.29227 16.25 9.14919 16.25 9.00001C16.25 8.85082 16.1907 8.70775 16.0852 8.60226C15.9798 8.49677 15.8367 8.43751 15.6875 8.43751H4.67023L8.77297 4.33548C8.87852 4.22993 8.93781 4.08677 8.93781 3.93751C8.93781 3.78824 8.87852 3.64509 8.77297 3.53954C8.66742 3.43399 8.52427 3.37469 8.375 3.37469C8.22573 3.37469 8.08258 3.43399 7.97703 3.53954L2.91453 8.60204C2.86223 8.65428 2.82074 8.71632 2.79243 8.7846C2.76413 8.85289 2.74956 8.92609 2.74956 9.00001C2.74956 9.07393 2.76413 9.14713 2.79243 9.21541C2.82074 9.2837 2.86223 9.34574 2.91453 9.39798Z" fill="#EBF2FA"/>
</svg>
