<svg width="32" height="32" viewBox="0 0 32 32" fill="none" xmlns="http://www.w3.org/2000/svg">
<path d="M15.5566 10.6669C15.3228 10.6655 15.091 10.7103 14.8745 10.7987C14.6581 10.8871 14.4612 11.0174 14.2952 11.1821L7.18898 18.2883C7.02333 18.454 6.89194 18.6506 6.80229 18.867C6.71264 19.0834 6.6665 19.3154 6.6665 19.5497C6.6665 19.7839 6.71264 20.0159 6.80229 20.2323C6.89194 20.4487 7.02333 20.6454 7.18898 20.811C7.35462 20.9767 7.55127 21.1081 7.76769 21.1977C7.98412 21.2874 8.21608 21.3335 8.45033 21.3335C8.68459 21.3335 8.91655 21.2874 9.13298 21.1977C9.3494 21.1081 9.54605 20.9767 9.71169 20.811L15.5566 14.9306L21.4192 20.5801C21.5827 20.7618 21.7818 20.9078 22.0043 21.0091C22.2267 21.1103 22.4677 21.1646 22.712 21.1684C22.9564 21.1723 23.199 21.1257 23.4245 21.0316C23.65 20.9374 23.8537 20.7978 24.0228 20.6213C24.1919 20.4449 24.3228 20.2354 24.4073 20.0061C24.4917 19.7767 24.528 19.5324 24.5137 19.2884C24.4995 19.0445 24.435 18.806 24.3244 18.5881C24.2138 18.3701 24.0594 18.1774 23.8709 18.0218L16.7646 11.1643C16.4398 10.8511 16.0078 10.6732 15.5566 10.6669Z" fill="#5679A6"/>
</svg>
